<mxfile host="app.diagrams.net" modified="2022-07-13T02:09:32.081Z" agent="5.0 (Windows NT 10.0; WOW64) AppleWebKit/537.36 (KHTML, like Gecko) Chrome/70.0.3538.67 Safari/537.36" etag="x2aBMxqZ1PmJEHwe4bPa" version="18.2.0" type="github">
  <diagram id="GU0x8jnuM79fOKuf90M-" name="Page-1">
    <mxGraphModel dx="1185" dy="662" grid="1" gridSize="10" guides="1" tooltips="1" connect="1" arrows="1" fold="1" page="1" pageScale="1" pageWidth="1169" pageHeight="1654" math="0" shadow="0">
      <root>
        <mxCell id="0" />
        <mxCell id="1" parent="0" />
        <mxCell id="rFWZIjPjwAI3xxAxUVjS-1" value="" style="rounded=0;whiteSpace=wrap;html=1;fillColor=#dae8fc;strokeColor=#6c8ebf;" vertex="1" parent="1">
          <mxGeometry x="150" y="180" width="110" height="340" as="geometry" />
        </mxCell>
        <mxCell id="rFWZIjPjwAI3xxAxUVjS-2" value="&lt;font style=&quot;font-size: 14px;&quot;&gt;高&lt;/font&gt;" style="text;html=1;resizable=0;autosize=1;align=center;verticalAlign=middle;points=[];fillColor=none;strokeColor=none;rounded=0;" vertex="1" parent="1">
          <mxGeometry x="90" y="200" width="30" height="20" as="geometry" />
        </mxCell>
        <mxCell id="rFWZIjPjwAI3xxAxUVjS-3" value="&lt;font style=&quot;font-size: 14px;&quot;&gt;低&lt;/font&gt;" style="text;html=1;resizable=0;autosize=1;align=center;verticalAlign=middle;points=[];fillColor=none;strokeColor=none;rounded=0;" vertex="1" parent="1">
          <mxGeometry x="90" y="290" width="30" height="20" as="geometry" />
        </mxCell>
        <mxCell id="rFWZIjPjwAI3xxAxUVjS-4" value="" style="endArrow=classic;html=1;rounded=0;fontSize=18;" edge="1" parent="1">
          <mxGeometry width="50" height="50" relative="1" as="geometry">
            <mxPoint x="130" y="210" as="sourcePoint" />
            <mxPoint x="130" y="290" as="targetPoint" />
          </mxGeometry>
        </mxCell>
        <mxCell id="rFWZIjPjwAI3xxAxUVjS-5" value="" style="endArrow=none;html=1;rounded=0;fontSize=18;exitX=0;exitY=0.076;exitDx=0;exitDy=0;exitPerimeter=0;" edge="1" parent="1">
          <mxGeometry width="50" height="50" relative="1" as="geometry">
            <mxPoint x="150" y="209.88000000000005" as="sourcePoint" />
            <mxPoint x="260" y="210" as="targetPoint" />
          </mxGeometry>
        </mxCell>
        <mxCell id="rFWZIjPjwAI3xxAxUVjS-6" value="" style="endArrow=classic;html=1;rounded=0;fontSize=18;" edge="1" parent="1">
          <mxGeometry width="50" height="50" relative="1" as="geometry">
            <mxPoint x="320" y="210" as="sourcePoint" />
            <mxPoint x="260" y="210" as="targetPoint" />
          </mxGeometry>
        </mxCell>
        <mxCell id="rFWZIjPjwAI3xxAxUVjS-7" value="SP" style="text;html=1;resizable=0;autosize=1;align=center;verticalAlign=middle;points=[];fillColor=none;strokeColor=none;rounded=0;fontSize=18;" vertex="1" parent="1">
          <mxGeometry x="270" y="180" width="40" height="30" as="geometry" />
        </mxCell>
        <mxCell id="rFWZIjPjwAI3xxAxUVjS-9" value="&lt;font style=&quot;font-size: 14px;&quot;&gt;进入main函数之前&lt;/font&gt;" style="text;html=1;resizable=0;autosize=1;align=center;verticalAlign=middle;points=[];fillColor=none;strokeColor=none;rounded=0;fontSize=18;" vertex="1" parent="1">
          <mxGeometry x="140" y="520" width="130" height="30" as="geometry" />
        </mxCell>
        <mxCell id="rFWZIjPjwAI3xxAxUVjS-10" value="" style="rounded=0;whiteSpace=wrap;html=1;fillColor=#dae8fc;strokeColor=#6c8ebf;" vertex="1" parent="1">
          <mxGeometry x="360" y="180" width="110" height="340" as="geometry" />
        </mxCell>
        <mxCell id="rFWZIjPjwAI3xxAxUVjS-11" value="" style="endArrow=none;html=1;rounded=0;fontSize=18;exitX=0;exitY=0.076;exitDx=0;exitDy=0;exitPerimeter=0;" edge="1" parent="1">
          <mxGeometry width="50" height="50" relative="1" as="geometry">
            <mxPoint x="360" y="209.8800000000001" as="sourcePoint" />
            <mxPoint x="470" y="209.9999999999999" as="targetPoint" />
          </mxGeometry>
        </mxCell>
        <mxCell id="rFWZIjPjwAI3xxAxUVjS-12" value="" style="rounded=0;whiteSpace=wrap;html=1;fillColor=#dae8fc;strokeColor=#6c8ebf;" vertex="1" parent="1">
          <mxGeometry x="550" y="180" width="110" height="340" as="geometry" />
        </mxCell>
        <mxCell id="rFWZIjPjwAI3xxAxUVjS-13" value="" style="endArrow=none;html=1;rounded=0;fontSize=18;exitX=0;exitY=0.076;exitDx=0;exitDy=0;exitPerimeter=0;" edge="1" parent="1">
          <mxGeometry width="50" height="50" relative="1" as="geometry">
            <mxPoint x="550" y="209.1700000000001" as="sourcePoint" />
            <mxPoint x="660" y="209.28999999999988" as="targetPoint" />
          </mxGeometry>
        </mxCell>
        <mxCell id="rFWZIjPjwAI3xxAxUVjS-18" value="" style="endArrow=classic;html=1;rounded=0;fontSize=18;" edge="1" parent="1">
          <mxGeometry width="50" height="50" relative="1" as="geometry">
            <mxPoint x="530" y="299.9999999999999" as="sourcePoint" />
            <mxPoint x="470" y="299.9999999999999" as="targetPoint" />
          </mxGeometry>
        </mxCell>
        <mxCell id="rFWZIjPjwAI3xxAxUVjS-19" value="SP" style="text;html=1;resizable=0;autosize=1;align=center;verticalAlign=middle;points=[];fillColor=none;strokeColor=none;rounded=0;fontSize=18;" vertex="1" parent="1">
          <mxGeometry x="480" y="270" width="40" height="30" as="geometry" />
        </mxCell>
        <mxCell id="rFWZIjPjwAI3xxAxUVjS-20" value="" style="endArrow=none;html=1;rounded=0;fontSize=18;exitX=0;exitY=0.076;exitDx=0;exitDy=0;exitPerimeter=0;" edge="1" parent="1">
          <mxGeometry width="50" height="50" relative="1" as="geometry">
            <mxPoint x="360" y="299.1600000000001" as="sourcePoint" />
            <mxPoint x="470" y="299.27999999999986" as="targetPoint" />
          </mxGeometry>
        </mxCell>
        <mxCell id="rFWZIjPjwAI3xxAxUVjS-21" value="" style="endArrow=classic;html=1;rounded=0;fontSize=18;" edge="1" parent="1">
          <mxGeometry width="50" height="50" relative="1" as="geometry">
            <mxPoint x="720" y="359.9999999999999" as="sourcePoint" />
            <mxPoint x="660" y="359.9999999999999" as="targetPoint" />
          </mxGeometry>
        </mxCell>
        <mxCell id="rFWZIjPjwAI3xxAxUVjS-22" value="SP" style="text;html=1;resizable=0;autosize=1;align=center;verticalAlign=middle;points=[];fillColor=none;strokeColor=none;rounded=0;fontSize=18;" vertex="1" parent="1">
          <mxGeometry x="670" y="330" width="40" height="30" as="geometry" />
        </mxCell>
        <mxCell id="rFWZIjPjwAI3xxAxUVjS-23" value="" style="endArrow=none;html=1;rounded=0;fontSize=18;exitX=0;exitY=0.076;exitDx=0;exitDy=0;exitPerimeter=0;" edge="1" parent="1">
          <mxGeometry width="50" height="50" relative="1" as="geometry">
            <mxPoint x="550" y="359.1600000000001" as="sourcePoint" />
            <mxPoint x="660" y="359.27999999999986" as="targetPoint" />
          </mxGeometry>
        </mxCell>
        <mxCell id="rFWZIjPjwAI3xxAxUVjS-24" value="" style="endArrow=none;html=1;rounded=0;fontSize=18;exitX=0;exitY=0.076;exitDx=0;exitDy=0;exitPerimeter=0;" edge="1" parent="1">
          <mxGeometry width="50" height="50" relative="1" as="geometry">
            <mxPoint x="550" y="299.1700000000001" as="sourcePoint" />
            <mxPoint x="660" y="299.28999999999985" as="targetPoint" />
          </mxGeometry>
        </mxCell>
        <mxCell id="rFWZIjPjwAI3xxAxUVjS-25" value="" style="rounded=0;whiteSpace=wrap;html=1;fillColor=#dae8fc;strokeColor=#6c8ebf;" vertex="1" parent="1">
          <mxGeometry x="740" y="180" width="110" height="340" as="geometry" />
        </mxCell>
        <mxCell id="rFWZIjPjwAI3xxAxUVjS-26" value="" style="endArrow=none;html=1;rounded=0;fontSize=18;exitX=0;exitY=0.076;exitDx=0;exitDy=0;exitPerimeter=0;" edge="1" parent="1">
          <mxGeometry width="50" height="50" relative="1" as="geometry">
            <mxPoint x="740" y="209.17000000000007" as="sourcePoint" />
            <mxPoint x="850" y="209.28999999999985" as="targetPoint" />
          </mxGeometry>
        </mxCell>
        <mxCell id="rFWZIjPjwAI3xxAxUVjS-28" value="" style="endArrow=none;html=1;rounded=0;fontSize=18;exitX=0;exitY=0.076;exitDx=0;exitDy=0;exitPerimeter=0;" edge="1" parent="1">
          <mxGeometry width="50" height="50" relative="1" as="geometry">
            <mxPoint x="740" y="359.1600000000001" as="sourcePoint" />
            <mxPoint x="850" y="359.27999999999986" as="targetPoint" />
          </mxGeometry>
        </mxCell>
        <mxCell id="rFWZIjPjwAI3xxAxUVjS-29" value="" style="endArrow=none;html=1;rounded=0;fontSize=18;exitX=0;exitY=0.076;exitDx=0;exitDy=0;exitPerimeter=0;" edge="1" parent="1">
          <mxGeometry width="50" height="50" relative="1" as="geometry">
            <mxPoint x="740" y="299.1700000000001" as="sourcePoint" />
            <mxPoint x="850" y="299.28999999999985" as="targetPoint" />
          </mxGeometry>
        </mxCell>
        <mxCell id="rFWZIjPjwAI3xxAxUVjS-30" value="" style="endArrow=classic;html=1;rounded=0;fontSize=18;" edge="1" parent="1">
          <mxGeometry width="50" height="50" relative="1" as="geometry">
            <mxPoint x="910" y="409.9999999999999" as="sourcePoint" />
            <mxPoint x="850" y="409.9999999999999" as="targetPoint" />
          </mxGeometry>
        </mxCell>
        <mxCell id="rFWZIjPjwAI3xxAxUVjS-31" value="SP" style="text;html=1;resizable=0;autosize=1;align=center;verticalAlign=middle;points=[];fillColor=none;strokeColor=none;rounded=0;fontSize=18;" vertex="1" parent="1">
          <mxGeometry x="860" y="380" width="40" height="30" as="geometry" />
        </mxCell>
        <mxCell id="rFWZIjPjwAI3xxAxUVjS-32" value="" style="endArrow=none;html=1;rounded=0;fontSize=18;exitX=0;exitY=0.076;exitDx=0;exitDy=0;exitPerimeter=0;" edge="1" parent="1">
          <mxGeometry width="50" height="50" relative="1" as="geometry">
            <mxPoint x="740" y="409.1600000000001" as="sourcePoint" />
            <mxPoint x="850" y="409.27999999999986" as="targetPoint" />
          </mxGeometry>
        </mxCell>
        <mxCell id="rFWZIjPjwAI3xxAxUVjS-35" value="" style="rounded=0;whiteSpace=wrap;html=1;fillColor=#dae8fc;strokeColor=#6c8ebf;" vertex="1" parent="1">
          <mxGeometry x="950" y="180" width="110" height="340" as="geometry" />
        </mxCell>
        <mxCell id="rFWZIjPjwAI3xxAxUVjS-36" value="" style="endArrow=none;html=1;rounded=0;fontSize=18;exitX=0;exitY=0.076;exitDx=0;exitDy=0;exitPerimeter=0;" edge="1" parent="1">
          <mxGeometry width="50" height="50" relative="1" as="geometry">
            <mxPoint x="949.9999999999995" y="209.17000000000007" as="sourcePoint" />
            <mxPoint x="1059.9999999999995" y="209.28999999999996" as="targetPoint" />
          </mxGeometry>
        </mxCell>
        <mxCell id="rFWZIjPjwAI3xxAxUVjS-37" value="" style="endArrow=none;html=1;rounded=0;fontSize=18;exitX=0;exitY=0.076;exitDx=0;exitDy=0;exitPerimeter=0;" edge="1" parent="1">
          <mxGeometry width="50" height="50" relative="1" as="geometry">
            <mxPoint x="949.9999999999995" y="359.1600000000003" as="sourcePoint" />
            <mxPoint x="1059.9999999999995" y="359.27999999999975" as="targetPoint" />
          </mxGeometry>
        </mxCell>
        <mxCell id="rFWZIjPjwAI3xxAxUVjS-38" value="" style="endArrow=none;html=1;rounded=0;fontSize=18;exitX=0;exitY=0.076;exitDx=0;exitDy=0;exitPerimeter=0;" edge="1" parent="1">
          <mxGeometry width="50" height="50" relative="1" as="geometry">
            <mxPoint x="949.9999999999995" y="299.1700000000001" as="sourcePoint" />
            <mxPoint x="1059.9999999999995" y="299.28999999999996" as="targetPoint" />
          </mxGeometry>
        </mxCell>
        <mxCell id="rFWZIjPjwAI3xxAxUVjS-41" value="" style="endArrow=none;html=1;rounded=0;fontSize=18;exitX=0;exitY=0.076;exitDx=0;exitDy=0;exitPerimeter=0;" edge="1" parent="1">
          <mxGeometry width="50" height="50" relative="1" as="geometry">
            <mxPoint x="949.9999999999995" y="409.1600000000003" as="sourcePoint" />
            <mxPoint x="1059.9999999999995" y="409.27999999999975" as="targetPoint" />
          </mxGeometry>
        </mxCell>
        <mxCell id="rFWZIjPjwAI3xxAxUVjS-42" value="" style="endArrow=classic;html=1;rounded=0;fontSize=18;" edge="1" parent="1">
          <mxGeometry width="50" height="50" relative="1" as="geometry">
            <mxPoint x="1119.9999999999995" y="519.3099999999997" as="sourcePoint" />
            <mxPoint x="1059.9999999999995" y="519.3099999999997" as="targetPoint" />
          </mxGeometry>
        </mxCell>
        <mxCell id="rFWZIjPjwAI3xxAxUVjS-43" value="SP" style="text;html=1;resizable=0;autosize=1;align=center;verticalAlign=middle;points=[];fillColor=none;strokeColor=none;rounded=0;fontSize=18;" vertex="1" parent="1">
          <mxGeometry x="1070" y="489.31" width="40" height="30" as="geometry" />
        </mxCell>
      </root>
    </mxGraphModel>
  </diagram>
</mxfile>
